<svg xmlns="http://www.w3.org/2000/svg" width="676" height="236" viewBox="0 0 676 236">
<rect width="676" height="236" fill="#181824" rx="12"/>
<rect x="10.0" y="10" width="40.0" height="40" rx="6" fill="#1e1e2e" stroke="#313244" stroke-width="1.5"/>
<text x="18" y="42" font-size="17" fill="#cdd6f4" font-family="Hack Nerd Font, sans-serif" font-weight="600">`</text>
<text x="44.0" y="25" font-size="11" fill="#cba6f7" text-anchor="end" font-family="Hack Nerd Font, sans-serif">~</text>
<rect x="54.0" y="10" width="40.0" height="40" rx="6" fill="#1e1e2e" stroke="#313244" stroke-width="1.5"/>
<text x="62" y="42" font-size="17" fill="#cdd6f4" font-family="Hack Nerd Font, sans-serif" font-weight="600">1</text>
<text x="88.0" y="25" font-size="11" fill="#cba6f7" text-anchor="end" font-family="Hack Nerd Font, sans-serif">!</text>
<rect x="98.0" y="10" width="40.0" height="40" rx="6" fill="#1e1e2e" stroke="#313244" stroke-width="1.5"/>
<text x="106" y="42" font-size="17" fill="#cdd6f4" font-family="Hack Nerd Font, sans-serif" font-weight="600">2</text>
<text x="132.0" y="25" font-size="11" fill="#cba6f7" text-anchor="end" font-family="Hack Nerd Font, sans-serif">@</text>
<rect x="142.0" y="10" width="40.0" height="40" rx="6" fill="#1e1e2e" stroke="#313244" stroke-width="1.5"/>
<text x="150" y="42" font-size="17" fill="#cdd6f4" font-family="Hack Nerd Font, sans-serif" font-weight="600">3</text>
<text x="176.0" y="25" font-size="11" fill="#cba6f7" text-anchor="end" font-family="Hack Nerd Font, sans-serif">#</text>
<rect x="186.0" y="10" width="40.0" height="40" rx="6" fill="#1e1e2e" stroke="#313244" stroke-width="1.5"/>
<text x="194" y="42" font-size="17" fill="#cdd6f4" font-family="Hack Nerd Font, sans-serif" font-weight="600">4</text>
<text x="220.0" y="25" font-size="11" fill="#cba6f7" text-anchor="end" font-family="Hack Nerd Font, sans-serif">$</text>
<rect x="230.0" y="10" width="40.0" height="40" rx="6" fill="#1e1e2e" stroke="#313244" stroke-width="1.5"/>
<text x="238" y="42" font-size="17" fill="#cdd6f4" font-family="Hack Nerd Font, sans-serif" font-weight="600">5</text>
<text x="264.0" y="25" font-size="11" fill="#cba6f7" text-anchor="end" font-family="Hack Nerd Font, sans-serif">%</text>
<rect x="274.0" y="10" width="40.0" height="40" rx="6" fill="#1e1e2e" stroke="#313244" stroke-width="1.5"/>
<text x="282" y="42" font-size="17" fill="#cdd6f4" font-family="Hack Nerd Font, sans-serif" font-weight="600">6</text>
<text x="308.0" y="25" font-size="11" fill="#cba6f7" text-anchor="end" font-family="Hack Nerd Font, sans-serif">^</text>
<rect x="318.0" y="10" width="40.0" height="40" rx="6" fill="#1e1e2e" stroke="#313244" stroke-width="1.5"/>
<text x="326" y="42" font-size="17" fill="#cdd6f4" font-family="Hack Nerd Font, sans-serif" font-weight="600">7</text>
<text x="352.0" y="25" font-size="11" fill="#cba6f7" text-anchor="end" font-family="Hack Nerd Font, sans-serif">&amp;</text>
<rect x="362.0" y="10" width="40.0" height="40" rx="6" fill="#1e1e2e" stroke="#313244" stroke-width="1.5"/>
<text x="370" y="42" font-size="17" fill="#cdd6f4" font-family="Hack Nerd Font, sans-serif" font-weight="600">8</text>
<text x="396.0" y="25" font-size="11" fill="#cba6f7" text-anchor="end" font-family="Hack Nerd Font, sans-serif">*</text>
<rect x="406.0" y="10" width="40.0" height="40" rx="6" fill="#1e1e2e" stroke="#313244" stroke-width="1.5"/>
<text x="414" y="42" font-size="17" fill="#cdd6f4" font-family="Hack Nerd Font, sans-serif" font-weight="600">9</text>
<text x="440.0" y="25" font-size="11" fill="#cba6f7" text-anchor="end" font-family="Hack Nerd Font, sans-serif">(</text>
<rect x="450.0" y="10" width="40.0" height="40" rx="6" fill="#1e1e2e" stroke="#313244" stroke-width="1.5"/>
<text x="458" y="42" font-size="17" fill="#cdd6f4" font-family="Hack Nerd Font, sans-serif" font-weight="600">0</text>
<text x="484.0" y="25" font-size="11" fill="#cba6f7" text-anchor="end" font-family="Hack Nerd Font, sans-serif">)</text>
<rect x="494.0" y="10" width="40.0" height="40" rx="6" fill="#1e1e2e" stroke="#313244" stroke-width="1.5"/>
<text x="502" y="42" font-size="17" fill="#cdd6f4" font-family="Hack Nerd Font, sans-serif" font-weight="600">-</text>
<text x="528.0" y="25" font-size="11" fill="#cba6f7" text-anchor="end" font-family="Hack Nerd Font, sans-serif">_</text>
<rect x="538.0" y="10" width="40.0" height="40" rx="6" fill="#1e1e2e" stroke="#313244" stroke-width="1.5"/>
<text x="546" y="42" font-size="17" fill="#cdd6f4" font-family="Hack Nerd Font, sans-serif" font-weight="600">=</text>
<text x="572.0" y="25" font-size="11" fill="#cba6f7" text-anchor="end" font-family="Hack Nerd Font, sans-serif">+</text>
<rect x="582.0" y="10" width="84.0" height="40" rx="6" fill="#1e1e2e" stroke="#313244" stroke-width="1.5"/>
<text x="624.0" y="34.0" font-size="12" fill="#6c7086" text-anchor="middle" font-family="Hack Nerd Font, sans-serif">Bksp</text>
<rect x="10.0" y="54" width="62.0" height="40" rx="6" fill="#1e1e2e" stroke="#313244" stroke-width="1.5"/>
<text x="41.0" y="78.0" font-size="12" fill="#6c7086" text-anchor="middle" font-family="Hack Nerd Font, sans-serif">Tab</text>
<rect x="76.0" y="54" width="40.0" height="40" rx="6" fill="#1e1e2e" stroke="#313244" stroke-width="1.5"/>
<text x="96.0" y="78.0" font-size="15" fill="#6c7086" text-anchor="middle" font-family="Hack Nerd Font, sans-serif">Q</text>
<rect x="120.0" y="54" width="40.0" height="40" rx="6" fill="#1e1e2e" stroke="#313244" stroke-width="1.5"/>
<text x="140.0" y="78.0" font-size="15" fill="#6c7086" text-anchor="middle" font-family="Hack Nerd Font, sans-serif">W</text>
<rect x="164.0" y="54" width="40.0" height="40" rx="6" fill="#1e1e2e" stroke="#313244" stroke-width="1.5"/>
<text x="184.0" y="78.0" font-size="15" fill="#6c7086" text-anchor="middle" font-family="Hack Nerd Font, sans-serif">E</text>
<rect x="208.0" y="54" width="40.0" height="40" rx="6" fill="#1e1e2e" stroke="#313244" stroke-width="1.5"/>
<text x="228.0" y="78.0" font-size="15" fill="#6c7086" text-anchor="middle" font-family="Hack Nerd Font, sans-serif">R</text>
<rect x="252.0" y="54" width="40.0" height="40" rx="6" fill="#1e1e2e" stroke="#313244" stroke-width="1.5"/>
<text x="272.0" y="78.0" font-size="15" fill="#6c7086" text-anchor="middle" font-family="Hack Nerd Font, sans-serif">T</text>
<rect x="296.0" y="54" width="40.0" height="40" rx="6" fill="#1e1e2e" stroke="#313244" stroke-width="1.5"/>
<text x="316.0" y="78.0" font-size="15" fill="#6c7086" text-anchor="middle" font-family="Hack Nerd Font, sans-serif">Y</text>
<rect x="340.0" y="54" width="40.0" height="40" rx="6" fill="#1e1e2e" stroke="#313244" stroke-width="1.5"/>
<text x="360.0" y="78.0" font-size="15" fill="#6c7086" text-anchor="middle" font-family="Hack Nerd Font, sans-serif">U</text>
<rect x="384.0" y="54" width="40.0" height="40" rx="6" fill="#1e1e2e" stroke="#313244" stroke-width="1.5"/>
<text x="404.0" y="78.0" font-size="15" fill="#6c7086" text-anchor="middle" font-family="Hack Nerd Font, sans-serif">I</text>
<rect x="428.0" y="54" width="40.0" height="40" rx="6" fill="#1e1e2e" stroke="#313244" stroke-width="1.5"/>
<text x="448.0" y="78.0" font-size="15" fill="#6c7086" text-anchor="middle" font-family="Hack Nerd Font, sans-serif">O</text>
<rect x="472.0" y="54" width="40.0" height="40" rx="6" fill="#1e1e2e" stroke="#313244" stroke-width="1.5"/>
<text x="492.0" y="78.0" font-size="15" fill="#6c7086" text-anchor="middle" font-family="Hack Nerd Font, sans-serif">P</text>
<rect x="516.0" y="54" width="40.0" height="40" rx="6" fill="#1e1e2e" stroke="#313244" stroke-width="1.5"/>
<text x="524.0" y="86" font-size="17" fill="#cdd6f4" font-family="Hack Nerd Font, sans-serif" font-weight="600">[</text>
<text x="550.0" y="69" font-size="11" fill="#cba6f7" text-anchor="end" font-family="Hack Nerd Font, sans-serif">{</text>
<rect x="560.0" y="54" width="40.0" height="40" rx="6" fill="#1e1e2e" stroke="#313244" stroke-width="1.5"/>
<text x="568.0" y="86" font-size="17" fill="#cdd6f4" font-family="Hack Nerd Font, sans-serif" font-weight="600">]</text>
<text x="594.0" y="69" font-size="11" fill="#cba6f7" text-anchor="end" font-family="Hack Nerd Font, sans-serif">}</text>
<rect x="604.0" y="54" width="62.0" height="40" rx="6" fill="#1e1e2e" stroke="#313244" stroke-width="1.5"/>
<text x="612.0" y="86" font-size="17" fill="#cdd6f4" font-family="Hack Nerd Font, sans-serif" font-weight="600">\</text>
<text x="660.0" y="69" font-size="11" fill="#cba6f7" text-anchor="end" font-family="Hack Nerd Font, sans-serif">|</text>
<rect x="10.0" y="98" width="73.0" height="40" rx="6" fill="#1e1e2e" stroke="#313244" stroke-width="1.5"/>
<text x="46.5" y="122.0" font-size="12" fill="#6c7086" text-anchor="middle" font-family="Hack Nerd Font, sans-serif">Caps</text>
<rect x="87.0" y="98" width="40.0" height="40" rx="6" fill="#1e1e2e" stroke="#313244" stroke-width="1.5"/>
<text x="107.0" y="122.0" font-size="15" fill="#6c7086" text-anchor="middle" font-family="Hack Nerd Font, sans-serif">A</text>
<rect x="131.0" y="98" width="40.0" height="40" rx="6" fill="#1e1e2e" stroke="#313244" stroke-width="1.5"/>
<text x="151.0" y="122.0" font-size="15" fill="#6c7086" text-anchor="middle" font-family="Hack Nerd Font, sans-serif">S</text>
<rect x="175.0" y="98" width="40.0" height="40" rx="6" fill="#1e1e2e" stroke="#313244" stroke-width="1.5"/>
<text x="195.0" y="122.0" font-size="15" fill="#6c7086" text-anchor="middle" font-family="Hack Nerd Font, sans-serif">D</text>
<rect x="219.0" y="98" width="40.0" height="40" rx="6" fill="#1e1e2e" stroke="#313244" stroke-width="1.5"/>
<text x="239.0" y="122.0" font-size="15" fill="#6c7086" text-anchor="middle" font-family="Hack Nerd Font, sans-serif">F</text>
<rect x="263.0" y="98" width="40.0" height="40" rx="6" fill="#1e1e2e" stroke="#313244" stroke-width="1.5"/>
<text x="283.0" y="122.0" font-size="15" fill="#6c7086" text-anchor="middle" font-family="Hack Nerd Font, sans-serif">G</text>
<rect x="307.0" y="98" width="40.0" height="40" rx="6" fill="#1e1e2e" stroke="#313244" stroke-width="1.5"/>
<text x="327.0" y="122.0" font-size="15" fill="#6c7086" text-anchor="middle" font-family="Hack Nerd Font, sans-serif">H</text>
<rect x="351.0" y="98" width="40.0" height="40" rx="6" fill="#1e1e2e" stroke="#313244" stroke-width="1.5"/>
<text x="371.0" y="122.0" font-size="15" fill="#6c7086" text-anchor="middle" font-family="Hack Nerd Font, sans-serif">J</text>
<rect x="395.0" y="98" width="40.0" height="40" rx="6" fill="#1e1e2e" stroke="#313244" stroke-width="1.5"/>
<text x="415.0" y="122.0" font-size="15" fill="#6c7086" text-anchor="middle" font-family="Hack Nerd Font, sans-serif">K</text>
<rect x="439.0" y="98" width="40.0" height="40" rx="6" fill="#1e1e2e" stroke="#313244" stroke-width="1.5"/>
<text x="459.0" y="122.0" font-size="15" fill="#6c7086" text-anchor="middle" font-family="Hack Nerd Font, sans-serif">L</text>
<rect x="483.0" y="98" width="40.0" height="40" rx="6" fill="#1e1e2e" stroke="#313244" stroke-width="1.5"/>
<text x="491.0" y="130" font-size="17" fill="#cdd6f4" font-family="Hack Nerd Font, sans-serif" font-weight="600">;</text>
<text x="517.0" y="113" font-size="11" fill="#cba6f7" text-anchor="end" font-family="Hack Nerd Font, sans-serif">:</text>
<rect x="527.0" y="98" width="40.0" height="40" rx="6" fill="#1e1e2e" stroke="#313244" stroke-width="1.5"/>
<text x="535.0" y="130" font-size="17" fill="#cdd6f4" font-family="Hack Nerd Font, sans-serif" font-weight="600">&#x27;</text>
<text x="561.0" y="113" font-size="11" fill="#cba6f7" text-anchor="end" font-family="Hack Nerd Font, sans-serif">&quot;</text>
<rect x="571.0" y="98" width="95.0" height="40" rx="6" fill="#1e1e2e" stroke="#313244" stroke-width="1.5"/>
<text x="618.5" y="122.0" font-size="12" fill="#6c7086" text-anchor="middle" font-family="Hack Nerd Font, sans-serif">Enter</text>
<rect x="10.0" y="142" width="95.0" height="40" rx="6" fill="#1e1e2e" stroke="#313244" stroke-width="1.5"/>
<text x="57.5" y="166.0" font-size="12" fill="#6c7086" text-anchor="middle" font-family="Hack Nerd Font, sans-serif">Shift</text>
<rect x="109.0" y="142" width="40.0" height="40" rx="6" fill="#1e1e2e" stroke="#313244" stroke-width="1.5"/>
<text x="129.0" y="166.0" font-size="15" fill="#6c7086" text-anchor="middle" font-family="Hack Nerd Font, sans-serif">Z</text>
<rect x="153.0" y="142" width="40.0" height="40" rx="6" fill="#1e1e2e" stroke="#313244" stroke-width="1.5"/>
<text x="173.0" y="166.0" font-size="15" fill="#6c7086" text-anchor="middle" font-family="Hack Nerd Font, sans-serif">X</text>
<rect x="197.0" y="142" width="40.0" height="40" rx="6" fill="#1e1e2e" stroke="#313244" stroke-width="1.5"/>
<text x="217.0" y="166.0" font-size="15" fill="#6c7086" text-anchor="middle" font-family="Hack Nerd Font, sans-serif">C</text>
<rect x="241.0" y="142" width="40.0" height="40" rx="6" fill="#1e1e2e" stroke="#313244" stroke-width="1.5"/>
<text x="261.0" y="166.0" font-size="15" fill="#6c7086" text-anchor="middle" font-family="Hack Nerd Font, sans-serif">V</text>
<rect x="285.0" y="142" width="40.0" height="40" rx="6" fill="#1e1e2e" stroke="#313244" stroke-width="1.5"/>
<text x="305.0" y="166.0" font-size="15" fill="#6c7086" text-anchor="middle" font-family="Hack Nerd Font, sans-serif">B</text>
<rect x="329.0" y="142" width="40.0" height="40" rx="6" fill="#1e1e2e" stroke="#313244" stroke-width="1.5"/>
<text x="349.0" y="166.0" font-size="15" fill="#6c7086" text-anchor="middle" font-family="Hack Nerd Font, sans-serif">N</text>
<rect x="373.0" y="142" width="40.0" height="40" rx="6" fill="#1e1e2e" stroke="#313244" stroke-width="1.5"/>
<text x="393.0" y="166.0" font-size="15" fill="#6c7086" text-anchor="middle" font-family="Hack Nerd Font, sans-serif">M</text>
<rect x="417.0" y="142" width="40.0" height="40" rx="6" fill="#1e1e2e" stroke="#313244" stroke-width="1.5"/>
<text x="425.0" y="174" font-size="17" fill="#cdd6f4" font-family="Hack Nerd Font, sans-serif" font-weight="600">,</text>
<text x="451.0" y="157" font-size="11" fill="#cba6f7" text-anchor="end" font-family="Hack Nerd Font, sans-serif">&lt;</text>
<rect x="461.0" y="142" width="40.0" height="40" rx="6" fill="#1e1e2e" stroke="#313244" stroke-width="1.5"/>
<text x="469.0" y="174" font-size="17" fill="#cdd6f4" font-family="Hack Nerd Font, sans-serif" font-weight="600">.</text>
<text x="495.0" y="157" font-size="11" fill="#cba6f7" text-anchor="end" font-family="Hack Nerd Font, sans-serif">&gt;</text>
<rect x="505.0" y="142" width="40.0" height="40" rx="6" fill="#1e1e2e" stroke="#313244" stroke-width="1.5"/>
<text x="513.0" y="174" font-size="17" fill="#cdd6f4" font-family="Hack Nerd Font, sans-serif" font-weight="600">/</text>
<text x="539.0" y="157" font-size="11" fill="#cba6f7" text-anchor="end" font-family="Hack Nerd Font, sans-serif">?</text>
<rect x="549.0" y="142" width="117.0" height="40" rx="6" fill="#1e1e2e" stroke="#313244" stroke-width="1.5"/>
<text x="607.5" y="166.0" font-size="12" fill="#6c7086" text-anchor="middle" font-family="Hack Nerd Font, sans-serif">Shift</text>
<rect x="10.0" y="186" width="51.0" height="40" rx="6" fill="#1e1e2e" stroke="#313244" stroke-width="1.5"/>
<text x="35.5" y="210.0" font-size="12" fill="#6c7086" text-anchor="middle" font-family="Hack Nerd Font, sans-serif">Ctrl</text>
<rect x="65.0" y="186" width="51.0" height="40" rx="6" fill="#1e1e2e" stroke="#313244" stroke-width="1.5"/>
<text x="90.5" y="210.0" font-size="12" fill="#6c7086" text-anchor="middle" font-family="Hack Nerd Font, sans-serif">Super</text>
<rect x="120.0" y="186" width="51.0" height="40" rx="6" fill="#1e1e2e" stroke="#313244" stroke-width="1.5"/>
<text x="145.5" y="210.0" font-size="12" fill="#6c7086" text-anchor="middle" font-family="Hack Nerd Font, sans-serif">Alt</text>
<rect x="175.0" y="186" width="271.0" height="40" rx="6" fill="#1e1e2e" stroke="#313244" stroke-width="1.5"/>
<rect x="450.0" y="186" width="51.0" height="40" rx="6" fill="#1e1e2e" stroke="#313244" stroke-width="1.5"/>
<text x="475.5" y="210.0" font-size="12" fill="#6c7086" text-anchor="middle" font-family="Hack Nerd Font, sans-serif">AltGr</text>
<rect x="505.0" y="186" width="51.0" height="40" rx="6" fill="#1e1e2e" stroke="#313244" stroke-width="1.5"/>
<text x="530.5" y="210.0" font-size="12" fill="#6c7086" text-anchor="middle" font-family="Hack Nerd Font, sans-serif">Super</text>
<rect x="560.0" y="186" width="51.0" height="40" rx="6" fill="#1e1e2e" stroke="#313244" stroke-width="1.5"/>
<text x="585.5" y="210.0" font-size="12" fill="#6c7086" text-anchor="middle" font-family="Hack Nerd Font, sans-serif">Menu</text>
<rect x="615.0" y="186" width="51.0" height="40" rx="6" fill="#1e1e2e" stroke="#313244" stroke-width="1.5"/>
<text x="640.5" y="210.0" font-size="12" fill="#6c7086" text-anchor="middle" font-family="Hack Nerd Font, sans-serif">Ctrl</text>
</svg>